<?xml version="1.0" encoding="UTF-8"?>
<svg width="284px" height="184px" viewBox="0 0 284 184" version="1.1" xmlns="http://www.w3.org/2000/svg" xmlns:xlink="http://www.w3.org/1999/xlink">
    <!-- Generator: Sketch 61.2 (89653) - https://sketch.com -->
    <title>编组 24</title>
    <desc>Created with Sketch.</desc>
    <g id="页面-1" stroke="none" stroke-width="1" fill="none" fill-rule="evenodd">
        <g id="资源" transform="translate(-1040.000000, -481.000000)">
            <g id="编组-24" transform="translate(1040.000000, 481.000000)">
                <path d="M2,0 L282,0 C283.104569,-2.02906125e-16 284,0.8954305 284,2 L284,184 L284,184 L0,184 L0,2 C-1.3527075e-16,0.8954305 0.8954305,2.02906125e-16 2,0 Z" id="蒙版备份-3" fill="#44B4AE"></path>
                <g id="编组-16备份" transform="translate(99.000000, 49.000000)">
                    <rect id="矩形备份-29" x="0" y="0" width="86.4" height="86.4"></rect>
                    <g id="编组-7" transform="translate(19.200000, 6.000000)">
                        <rect id="矩形" fill="#1B9D9D" x="1.112616" y="0" width="45.617256" height="74.1744" rx="0.741744"></rect>
                        <path d="M1.668924,0 L46.173564,0 C46.5832179,3.57701019e-17 46.915308,0.332090101 46.915308,0.741744 L46.915308,6.304824 L46.915308,6.304824 L0.92718,6.304824 L0.92718,0.741744 C0.92718,0.332090101 1.2592701,-3.57701019e-17 1.668924,0 Z" id="矩形" fill="#8AD2D3"></path>
                        <path d="M1.112616,59.710392 L46.729872,59.710392 L46.729872,73.803528 C46.729872,74.2131819 46.3977819,74.545272 45.988128,74.545272 L1.85436,74.545272 C1.4447061,74.545272 1.112616,74.2131819 1.112616,73.803528 L1.112616,59.710392 L1.112616,59.710392 Z" id="矩形备份-40" fill="#01BBBD" style="mix-blend-mode: multiply;"></path>
                        <circle id="椭圆形" fill="#92DFE0" cx="24.10668" cy="66.880584" r="3.70872"></circle>
                        <g id="sketch" transform="translate(7.417440, 21.016080)" fill="#C2EFF0" fill-rule="nonzero">
                            <path d="M31.6975799,9.62369378 L24.1492723,0.190168481 C24.1046518,0.134392809 24.0340026,0.100927406 23.9633534,0.100927406 L8.67338258,0.100927406 C8.60273339,0.100927406 8.53208421,0.134392809 8.48746367,0.190168481 L0.939156075,9.62369378 C0.868506891,9.71293486 0.868506891,9.84307809 0.946592831,9.93231917 L16.1398859,27.0182667 C16.1845064,27.0703239 16.2514372,27.0963526 16.318368,27.0963526 C16.3852988,27.0963526 16.4485112,27.0666056 16.4968502,27.0182667 L31.6901432,9.93231917 C31.7682291,9.84307809 31.7682291,9.71293486 31.6975799,9.62369378 Z M21.2712477,2.23527645 L22.5503697,7.21418476 L17.6235187,2.23527645 L21.2712477,2.23527645 Z M21.5761547,8.8725814 L11.0605813,8.8725814 L16.318368,3.55901906 L21.5761547,8.8725814 L21.5761547,8.8725814 Z M11.3654883,2.23527645 L15.0132173,2.23527645 L10.0826479,7.21418476 L11.3654883,2.23527645 Z M9.37987442,2.49556292 L7.74006967,8.8725814 L4.27825963,8.8725814 L9.37987442,2.49556292 L9.37987442,2.49556292 Z M4.51623583,10.7317705 L8.02638478,10.7317705 L12.7041045,19.9421931 L4.51623583,10.7317705 L4.51623583,10.7317705 Z M16.318368,22.9466426 L10.1123949,10.7317705 L22.5206227,10.7317705 L16.318368,22.9466426 Z M19.9289132,19.9421931 L24.6103512,10.7317705 L28.1205002,10.7317705 L19.9289132,19.9421931 Z M24.8966663,8.8725814 L23.2568616,2.49556292 L28.3584764,8.8725814 L24.8966663,8.8725814 L24.8966663,8.8725814 Z" id="形状"></path>
                        </g>
                    </g>
                </g>
            </g>
        </g>
    </g>
</svg>