<?xml version="1.0" encoding="UTF-8"?>
<svg width="284px" height="184px" viewBox="0 0 284 184" version="1.1" xmlns="http://www.w3.org/2000/svg" xmlns:xlink="http://www.w3.org/1999/xlink">
    <!-- Generator: Sketch 61.2 (89653) - https://sketch.com -->
    <title>编组 25</title>
    <desc>Created with Sketch.</desc>
    <defs>
        <rect id="path-1" x="0" y="0" width="63.7859155" height="35.0197183"></rect>
        <filter x="-76.8%" y="-82.2%" width="253.5%" height="267.3%" filterUnits="objectBoundingBox" id="filter-3">
            <feOffset dx="0" dy="1" in="SourceAlpha" result="shadowOffsetOuter1"></feOffset>
            <feGaussianBlur stdDeviation="2.5" in="shadowOffsetOuter1" result="shadowBlurOuter1"></feGaussianBlur>
            <feColorMatrix values="0 0 0 0 0   0 0 0 0 0   0 0 0 0 0  0 0 0 0.04 0" type="matrix" in="shadowBlurOuter1" result="shadowMatrixOuter1"></feColorMatrix>
            <feMerge>
                <feMergeNode in="shadowMatrixOuter1"></feMergeNode>
                <feMergeNode in="SourceGraphic"></feMergeNode>
            </feMerge>
        </filter>
        <linearGradient x1="50%" y1="35.3784392%" x2="25.7737964%" y2="50%" id="linearGradient-4">
            <stop stop-color="#FFFFFF" offset="0%"></stop>
            <stop stop-color="#D5E5FF" offset="100%"></stop>
        </linearGradient>
    </defs>
    <g id="页面-1" stroke="none" stroke-width="1" fill="none" fill-rule="evenodd">
        <g id="资源" transform="translate(-732.000000, -481.000000)">
            <g id="编组-25" transform="translate(732.000000, 481.000000)">
                <path d="M2,0 L282,0 C283.104569,-2.02906125e-16 284,0.8954305 284,2 L284,184 L284,184 L0,184 L0,2 C-1.3527075e-16,0.8954305 0.8954305,2.02906125e-16 2,0 Z" id="蒙版备份-2" fill-opacity="0.9" fill="#131C8C"></path>
                <g id="编组-19备份" transform="translate(99.000000, 49.000000)">
                    <rect id="矩形备份-26" x="0" y="0" width="86.4" height="86.4"></rect>
                    <g id="编组-9" transform="translate(9.000000, 6.000000)">
                        <g id="tools" transform="translate(45.996353, 28.347216) rotate(-345.000000) translate(-45.996353, -28.347216) translate(31.925930, 3.333131)">
                            <g id="编组-5" transform="translate(11.742807, 24.680669) rotate(-7.000000) translate(-11.742807, -24.680669) translate(2.883652, 1.229965)">
                                <path d="M16.6793134,8.26148768 C16.6793134,5.02724472 14.837456,1.38261444 12.140625,-3.63797881e-12 L12.140625,7.61659331 L4.53868838,7.61659331 L4.53868838,0.00488556338 C1.84674296,1.3875 3.63975516e-12,5.02724472 3.63975516e-12,8.26637324 C3.63975516e-12,11.4761884 1.81254401,14.2609595 4.47517606,15.6582306 L3.70814261,40.7797975 C3.61043134,43.8723592 5.61839789,46.0610915 8.1784331,46.0610915 L8.50576585,46.0610915 C11.0658011,46.0610915 13.0737676,43.8723592 12.9760563,40.7797975 L12.2041373,15.6533451 C14.8667694,14.2560739 16.6793134,11.4713028 16.6793134,8.26148768 Z M8.33965669,43.1981514 C7.46025528,43.1981514 6.75184859,42.4848592 6.75184859,41.6103433 C6.75184859,40.7309419 7.46514085,40.0225352 8.33965669,40.0225352 C9.2190581,40.0225352 9.92748974,40.7358275 9.92748974,41.6103433 C9.93235035,42.4848592 9.2190581,43.1981514 8.33965669,43.1981514 Z" id="形状" fill="#ADB2FF"></path>
                                <path d="M12.140625,7.62147887 L16.6548856,7.62147887 C16.6548856,7.61659331 16.1516725,2.51606514 12.140625,0.00488556338 L12.140625,7.62147887 Z" id="路径" fill="#5964F7" fill-rule="nonzero"></path>
                                <path d="M11.5543574,12.1943662 L5.12495599,12.1943662 C4.8025088,12.1943662 4.53868838,11.9305458 4.53868838,11.6080986 L4.53868838,10.6798415 C4.53868838,10.3573944 4.8025088,10.0935739 5.12495599,10.0935739 L11.5543574,10.0935739 C11.8768046,10.0935739 12.140625,10.3573944 12.140625,10.6798415 L12.140625,11.6080986 C12.140625,11.9305458 11.8768046,12.1943662 11.5543574,12.1943662 L11.5543574,12.1943662 Z" id="路径" fill="#FFFFFF" fill-rule="nonzero"></path>
                            </g>
                            <path d="M26.1148066,0.138849457 L21.1168752,0.138849457 L21.1168752,7.17406072 L22.5923154,8.61530192 L22.5923154,32.9209797 C22.5923154,33.2434269 22.8561358,33.5072473 23.178583,33.5072473 L24.0579844,33.5072473 C24.3804316,33.5072473 24.644252,33.2434269 24.644252,32.9209797 L24.644252,8.61530192 L26.1196921,7.17406072 L26.1196921,0.138849457 L26.1148066,0.138849457 Z" id="路径" fill="#858DFF" fill-rule="nonzero"></path>
                            <path d="M26.0708365,45.965434 L21.1657308,45.965434 C20.5208365,45.965434 19.9931956,45.4377931 19.9931956,44.7928988 L19.9931956,28.3676347 C19.9931956,27.7227403 20.5208365,27.1950995 21.1657308,27.1950995 L26.0708365,27.1950995 C26.7157308,27.1950995 27.2433717,27.7227403 27.2433717,28.3676347 L27.2433717,44.7928988 C27.2433717,45.4377931 26.7157308,45.965434 26.0708365,45.965434 Z" id="路径" fill="#5964F7" fill-rule="nonzero"></path>
                        </g>
                        <g id="编组-4" transform="translate(14.733404, 28.530896) rotate(-15.000000) translate(-14.733404, -28.530896) translate(10.043263, 4.037939)">
                            <rect id="矩形" fill="#ADB2FF" x="0" y="12.1216049" width="9.00507042" height="36.0202817"></rect>
                            <polygon id="矩形" fill="#D6D9FF" points="4.50253521 -2.27373675e-13 9.00507042 12.1216049 0 12.1216049"></polygon>
                            <polygon id="路径" fill="#6E77F2" points="4.50253521 4.54747351e-13 6.7733138 6.11744451 2.22875493 6.11744451"></polygon>
                        </g>
                        <g id="编组-50" transform="translate(28.239473, 30.115815) rotate(-3.000000) translate(-28.239473, -30.115815) translate(22.507078, 1.453843)">
                            <rect id="矩形" fill="#858DFF" x="0" y="0" width="11.256338" height="56.832"></rect>
                            <rect id="矩形" fill="#4852CF" x="0" y="6.40360563" width="3.20180282" height="1.20067606"></rect>
                            <rect id="矩形备份-113" fill="#4852CF" x="0" y="23.6132958" width="3.20180282" height="1.20067606"></rect>
                            <rect id="矩形备份-115" fill="#0170FE" x="0" y="40.8229859" width="3.20180282" height="1.20067606"></rect>
                            <rect id="矩形备份-112" fill="#4852CF" x="0" y="14.808338" width="6.40360563" height="1.20067606"></rect>
                            <rect id="矩形备份-114" fill="#4852CF" x="0" y="32.0180282" width="6.40360563" height="1.20067606"></rect>
                            <rect id="矩形备份-116" fill="#0170FE" x="0" y="49.2277183" width="6.40360563" height="1.20067606"></rect>
                        </g>
                        <g id="sketch" transform="translate(2.501408, 37.729577)">
                            <mask id="mask-2" fill="white">
                                <use xlink:href="#path-1"></use>
                            </mask>
                            <use id="蒙版" fill="#5964F7" fill-rule="nonzero" xlink:href="#path-1"></use>
                            <g id="面性备份-2" filter="url(#filter-3)" mask="url(#mask-2)">
                                <g transform="translate(25.847887, 12.923944)">
                                    <path d="M14.37325,1.21194579 L14.37325,1.2216359 C14.3725212,1.4869959 14.2763181,1.75720095 14.0613188,1.97709196 L7.18652279,9.00830466 L0.311931192,1.97709196 C0.096931889,1.75720095 0.000364405598,1.4869959 -4.97379915e-14,1.2216359 L-4.97379915e-14,1.21194579 C-4.97379915e-14,0.938738917 0.099315733,0.688972517 0.263037181,0.498458215 C0.435688222,0.293820988 0.685369359,0.152166134 0.98803458,0.132681643 C1.01099999,0.131155287 1.03416455,0.130380187 1.05750504,0.130380187 L13.3150161,0.130380187 C13.3320659,0.130380187 13.3490213,0.130792115 13.3658735,0.131606766 C13.6670769,0.145706394 13.9169915,0.280262684 14.0925564,0.478210954 C14.2667982,0.670995077 14.37325,0.928740575 14.37325,1.21194579 Z" id="路径" fill="url(#linearGradient-4)"></path>
                                    <path d="M5.86363681,7.973917 C6.61066828,8.70112992 6.61066828,9.88030568 5.86363681,10.6075186 C5.11660533,11.3347315 3.90566731,11.3347315 3.15863584,10.6075186 C2.41160436,9.88030568 2.41160436,8.70112992 3.15863584,7.973917 C3.90566731,7.24670407 5.11660533,7.24670407 5.86363681,7.973917 M1.09066595,0.130380187 C0.533753989,0.131471007 0,0.55252729 0,1.18811139 L0,1.18811139 L0,13.4169239 C0,13.9994215 0.485943975,14.4721099 1.08394267,14.4721099 L1.08394267,14.4721099 L13.646024,14.4721099 C14.2981824,14.4721099 14.7307137,13.9536071 14.7325812,13.4118334 L14.7325812,13.4118334 L14.7325812,13.4089246 C14.7325812,13.1496732 14.6335996,12.8853313 14.4128518,12.6704399 L14.4128518,12.6704399 L1.85077048,0.441627319 C1.63039619,0.227099506 1.35959729,0.1311074 1.09365408,0.130380187 L1.09365408,0.130380187 L1.09066595,0.130380187 Z" id="Clip-5" fill="#FFFFFF"></path>
                                </g>
                            </g>
                        </g>
                        <rect id="矩形" fill="#2F3CEB" x="0" y="37.7295775" width="68.7887324" height="7.50422535"></rect>
                        <g id="Sketch-(Filled)" transform="translate(22.929577, 46.901408)" fill="#000000" fill-rule="nonzero" opacity="0">
                            <rect id="矩形" x="0" y="0" width="23.7633803" height="23.7633803"></rect>
                        </g>
                    </g>
                </g>
            </g>
        </g>
    </g>
</svg>